<?xml version="1.0" encoding="utf-8"?>
<!-- Generator: Adobe Illustrator 27.4.1, SVG Export Plug-In . SVG Version: 6.00 Build 0)  -->
<svg version="1.1" id="Layer_1" xmlns="http://www.w3.org/2000/svg" xmlns:xlink="http://www.w3.org/1999/xlink" x="0px" y="0px"
	 viewBox="0 0 250 150" style="enable-background:new 0 0 250 150;" xml:space="preserve">
<style type="text/css">
	.st0{fill:#FF66F1;}
	.st1{fill:#939393;}
	.st2{fill:#D3CDCD;}
	.st3{fill:url(#SVGID_1_);}
	.st4{fill:url(#SVGID_00000147210558128967966880000014486466029556128664_);}
	.st5{fill:#333232;}
	.st6{fill:url(#SVGID_00000047022897172815083650000013219922057269000873_);}
</style>
<g>
	<path class="st0" d="M55.2,42.8c-0.9,0-2,0.2-3.3,0.4c-1.3,0.2-2.4,0.5-3.4,0.8c-1.1,0.4-1.8,1-2.2,1.9c-0.4,0.9-0.6,1.9-0.6,2.9
		v40.2c0,2.1-0.4,4.3-1.3,6.7c-0.8,2.4-2.1,4.5-3.7,6.3c-1.9,2.2-4.1,3.9-6.7,5.1c-2.6,1.2-5.6,1.8-8.9,1.8c-5.2,0-9.4-1.5-12.7-4.4
		c-3.2-2.9-4.9-6.9-4.9-11.8c0-2.2,0.6-4.1,1.7-5.8c1.1-1.7,2.7-2.5,4.9-2.5c1.9,0,3.5,0.5,4.6,1.6c1.2,1.1,1.7,2.5,1.7,4.2
		c0,1-0.2,2-0.6,3.1c-0.4,1-0.9,1.9-1.4,2.7c-0.5,0.7-1,1.6-1.6,2.6c-0.6,1-1,1.9-1.3,2.7c0.7,1.1,1.7,2,3.1,2.8
		c1.4,0.8,3.3,1.2,5.7,1.2c2.3,0,4.2-0.5,5.7-1.6c1.5-1.1,2.6-2.5,3.3-4.3c0.7-1.7,1.2-3.7,1.5-6.1c0.3-2.4,0.5-5.1,0.5-8.1V49.3
		c0-1.1-0.2-2-0.6-2.8c-0.4-0.7-1.1-1.4-2.3-2c-1-0.5-2.2-0.9-3.7-1.2c-1.5-0.3-2.7-0.4-3.7-0.5v-3.4h30V42.8z"/>
	<path class="st0" d="M168.9,43.6c-0.9,0-2,0.2-3.3,0.4c-1.3,0.2-2.4,0.5-3.4,0.8c-1.1,0.4-1.8,1-2.2,1.9c-0.4,0.9-0.6,1.9-0.6,2.9
		v40.2c0,2.1-0.4,4.3-1.3,6.7c-0.8,2.4-2.1,4.5-3.7,6.3c-1.9,2.2-4.1,3.9-6.7,5.1c-2.6,1.2-5.6,1.8-8.9,1.8c-5.2,0-9.4-1.5-12.7-4.4
		c-3.2-2.9-4.9-6.9-4.9-11.8c0-2.2,0.6-4.1,1.7-5.8c1.1-1.7,2.7-2.5,4.9-2.5c1.9,0,3.5,0.5,4.6,1.6c1.2,1.1,1.7,2.5,1.7,4.2
		c0,1-0.2,2-0.6,3.1c-0.4,1-0.9,1.9-1.4,2.7c-0.5,0.7-1,1.6-1.6,2.6c-0.6,1-1,1.9-1.3,2.7c0.7,1.1,1.7,2,3.1,2.8
		c1.4,0.8,3.3,1.2,5.7,1.2c2.3,0,4.2-0.5,5.7-1.6c1.5-1.1,2.6-2.5,3.3-4.3c0.7-1.7,1.2-3.7,1.5-6.1c0.3-2.4,0.5-5.1,0.5-8.1V50.1
		c0-1.1-0.2-2-0.5-2.8c-0.4-0.7-1.1-1.4-2.3-2c-1-0.5-2.2-0.9-3.7-1.2c-1.5-0.3-2.7-0.4-3.7-0.5v-3.4h30V43.6z"/>
	<g>
		<ellipse class="st1" cx="87.9" cy="75" rx="32.6" ry="35.9"/>
		<path class="st2" d="M90.2,75.9h-5.3c-1,0-1.8-0.8-1.8-1.8V39.6c0-1,0.8-1.8,1.8-1.8h5.3c1,0,1.8,0.8,1.8,1.8v34.5
			C92,75.1,91.2,75.9,90.2,75.9z"/>
		<path class="st2" d="M90.9,111.8h-6.6c-0.6,0-1.1-0.5-1.1-1.1V98.6c0-0.6,0.5-1.1,1.1-1.1h6.6c0.6,0,1.1,0.5,1.1,1.1v12.1
			C92,111.3,91.5,111.8,90.9,111.8z"/>
		<radialGradient id="SVGID_1_" cx="75.9186" cy="76.2434" r="5.6837" gradientUnits="userSpaceOnUse">
			<stop  offset="1.385225e-07" style="stop-color:#F9ED32"/>
			<stop  offset="1" style="stop-color:#FBB040"/>
		</radialGradient>
		<rect x="68.7" y="72.8" class="st3" width="14.5" height="6.9"/>
		
			<radialGradient id="SVGID_00000085968897459250874790000012750619994514780329_" cx="99.2186" cy="76.2434" r="5.6837" gradientUnits="userSpaceOnUse">
			<stop  offset="1.385225e-07" style="stop-color:#F9ED32"/>
			<stop  offset="1" style="stop-color:#FBB040"/>
		</radialGradient>
		
			<rect x="92" y="72.8" style="fill:url(#SVGID_00000085968897459250874790000012750619994514780329_);" width="14.5" height="6.9"/>
		
			<rect x="63.7" y="67.3" transform="matrix(0.9941 0.1087 -0.1087 0.9941 8.0911 -7.6778)" class="st2" width="21.4" height="6.1"/>
		
			<rect x="90" y="67.3" transform="matrix(0.9977 -6.785700e-02 6.785700e-02 0.9977 -4.5427 6.9939)" class="st2" width="21.4" height="6.1"/>
		<rect x="75.9" y="91.9" class="st2" width="23.3" height="4.7"/>
		<polygon class="st2" points="78.2,99.5 77.6,97.6 77.3,96.5 78.2,96.5 79.1,96.5 78.8,97.6 		"/>
		<polygon class="st2" points="97.5,99.5 96.9,97.6 96.6,96.5 97.5,96.5 98.5,96.5 98.1,97.6 		"/>
	</g>
	<g>
		<g>
			<ellipse class="st1" cx="202.3" cy="73.9" rx="32.6" ry="35.9"/>
		</g>
		<rect x="190.6" y="90.1" class="st2" width="23.3" height="4.7"/>
		<polygon class="st2" points="192.9,97.7 192.2,95.8 192,94.7 192.9,94.7 193.8,94.7 193.5,95.8 		"/>
		<polygon class="st2" points="212.2,97.7 211.6,95.8 211.3,94.7 212.2,94.7 213.1,94.7 212.8,95.8 		"/>
		<path class="st2" d="M205.6,110.5h-6.6c-0.6,0-1.1-0.5-1.1-1.1V97.3c0-0.6,0.5-1.1,1.1-1.1h6.6c0.6,0,1.1,0.5,1.1,1.1v12.1
			C206.6,110,206.2,110.5,205.6,110.5z"/>
		<rect x="174.5" y="65.2" class="st2" width="54.8" height="7.2"/>
		<polygon class="st5" points="195.5,77.7 180.9,75.9 180.9,72.4 195.5,72.4 		"/>
		<polygon class="st5" points="223.9,75.6 209.4,77.7 209.4,72.4 223.9,72.4 		"/>
		
			<radialGradient id="SVGID_00000049189165360356447950000005008915588721629592_" cx="201.873" cy="52.8669" r="8.5368" gradientUnits="userSpaceOnUse">
			<stop  offset="5.327789e-09" style="stop-color:#F7941D"/>
			<stop  offset="1" style="stop-color:#BE1E2D"/>
		</radialGradient>
		<path style="fill:url(#SVGID_00000049189165360356447950000005008915588721629592_);" d="M200.7,61.4l-6.4-6.4
			c-0.6-0.6-0.6-1.5-0.1-2.1l6.4-8.4c0.6-0.8,1.9-0.8,2.6,0l6.4,8.4c0.5,0.6,0.4,1.5-0.1,2.1l-6.4,6.4C202.4,62,201.4,62,200.7,61.4
			z"/>
	</g>
</g>
</svg>
