<?xml version="1.0" encoding="utf-8"?>
<!-- Generator: Adobe Illustrator 27.4.1, SVG Export Plug-In . SVG Version: 6.00 Build 0)  -->
<svg version="1.1" id="Layer_1" xmlns="http://www.w3.org/2000/svg" xmlns:xlink="http://www.w3.org/1999/xlink" x="0px" y="0px"
	 viewBox="0 0 250 150" style="enable-background:new 0 0 250 150;" xml:space="preserve">
<style type="text/css">
	.st0{fill:#939393;}
	.st1{fill:#D3CDCD;}
	.st2{fill:url(#SVGID_1_);}
	.st3{fill:url(#SVGID_00000052810718699770376620000016681328518805191046_);}
	.st4{fill:#333232;}
	.st5{fill:url(#SVGID_00000008126571478757762750000012246890568966617787_);}
</style>
<g>
	<g>
		<ellipse class="st0" cx="92.1" cy="75.2" rx="32.6" ry="35.9"/>
		<path class="st1" d="M94.5,76h-5.3c-1,0-1.8-0.8-1.8-1.8V39.8c0-1,0.8-1.8,1.8-1.8h5.3c1,0,1.8,0.8,1.8,1.8v34.5
			C96.2,75.3,95.4,76,94.5,76z"/>
		<path class="st1" d="M95.2,112h-6.6c-0.6,0-1.1-0.5-1.1-1.1V98.8c0-0.6,0.5-1.1,1.1-1.1h6.6c0.6,0,1.1,0.5,1.1,1.1v12.1
			C96.2,111.5,95.8,112,95.2,112z"/>
		<radialGradient id="SVGID_1_" cx="80.1858" cy="76.4347" r="5.6837" gradientUnits="userSpaceOnUse">
			<stop  offset="1.385225e-07" style="stop-color:#F9ED32"/>
			<stop  offset="1" style="stop-color:#FBB040"/>
		</radialGradient>
		<rect x="72.9" y="73" class="st2" width="14.5" height="6.9"/>
		
			<radialGradient id="SVGID_00000012430834782617339850000013459783737222949044_" cx="103.4858" cy="76.4347" r="5.6837" gradientUnits="userSpaceOnUse">
			<stop  offset="1.385225e-07" style="stop-color:#F9ED32"/>
			<stop  offset="1" style="stop-color:#FBB040"/>
		</radialGradient>
		
			<rect x="96.2" y="73" style="fill:url(#SVGID_00000012430834782617339850000013459783737222949044_);" width="14.5" height="6.9"/>
		<rect x="68" y="67.5" transform="matrix(0.9941 0.1087 -0.1087 0.9941 8.1372 -8.1406)" class="st1" width="21.4" height="6.1"/>
		
			<rect x="94.2" y="67.5" transform="matrix(0.9977 -6.785700e-02 6.785700e-02 0.9977 -4.5458 7.2839)" class="st1" width="21.4" height="6.1"/>
		<rect x="80.2" y="92.1" class="st1" width="23.3" height="4.7"/>
		<polygon class="st1" points="82.4,99.7 81.8,97.8 81.5,96.7 82.4,96.7 83.4,96.7 83.1,97.8 		"/>
		<polygon class="st1" points="101.8,99.7 101.2,97.8 100.9,96.7 101.8,96.7 102.7,96.7 102.4,97.8 		"/>
	</g>
	<g>
		<g>
			<ellipse class="st0" cx="167.7" cy="74.7" rx="32.6" ry="35.9"/>
		</g>
		<rect x="156" y="90.9" class="st1" width="23.3" height="4.7"/>
		<polygon class="st1" points="158.3,98.5 157.7,96.6 157.4,95.5 158.3,95.5 159.2,95.5 158.9,96.6 		"/>
		<polygon class="st1" points="177.6,98.5 177,96.6 176.7,95.5 177.6,95.5 178.5,95.5 178.2,96.6 		"/>
		<path class="st1" d="M171,111.3h-6.6c-0.6,0-1.1-0.5-1.1-1.1V98.1c0-0.6,0.5-1.1,1.1-1.1h6.6c0.6,0,1.1,0.5,1.1,1.1v12.1
			C172.1,110.8,171.6,111.3,171,111.3z"/>
		<rect x="139.9" y="66" class="st1" width="54.8" height="7.2"/>
		<polygon class="st4" points="160.9,78.5 146.3,76.7 146.3,73.2 160.9,73.2 		"/>
		<polygon class="st4" points="189.4,76.4 174.8,78.5 174.8,73.2 189.4,73.2 		"/>
		
			<radialGradient id="SVGID_00000006685866376517593390000016752168415662465969_" cx="167.2837" cy="53.6633" r="8.5368" gradientUnits="userSpaceOnUse">
			<stop  offset="5.327789e-09" style="stop-color:#F7941D"/>
			<stop  offset="1" style="stop-color:#BE1E2D"/>
		</radialGradient>
		<path style="fill:url(#SVGID_00000006685866376517593390000016752168415662465969_);" d="M166.1,62.2l-6.4-6.4
			c-0.6-0.6-0.6-1.5-0.1-2.1l6.4-8.4c0.6-0.8,1.9-0.8,2.6,0l6.4,8.4c0.5,0.6,0.4,1.5-0.1,2.1l-6.4,6.4
			C167.8,62.8,166.8,62.8,166.1,62.2z"/>
	</g>
</g>
</svg>
